<svg aria-roledescription="er" viewBox="0 0 508.81549072265625 606" style="max-width: 508.815px; background-color: white;" xmlns:xlink="http://www.w3.org/1999/xlink" xmlns="http://www.w3.org/2000/svg" width="100%" id="mermaid-0"><style>#mermaid-0{font-family:"trebuchet ms",verdana,arial,sans-serif;font-size:16px;fill:#000000;}#mermaid-0 .error-icon{fill:#552222;}#mermaid-0 .error-text{fill:#552222;stroke:#552222;}#mermaid-0 .edge-thickness-normal{stroke-width:2px;}#mermaid-0 .edge-thickness-thick{stroke-width:3.5px;}#mermaid-0 .edge-pattern-solid{stroke-dasharray:0;}#mermaid-0 .edge-pattern-dashed{stroke-dasharray:3;}#mermaid-0 .edge-pattern-dotted{stroke-dasharray:2;}#mermaid-0 .marker{fill:#000000;stroke:#000000;}#mermaid-0 .marker.cross{stroke:#000000;}#mermaid-0 svg{font-family:"trebuchet ms",verdana,arial,sans-serif;font-size:16px;}#mermaid-0 .entityBox{fill:#cde498;stroke:#13540c;}#mermaid-0 .attributeBoxOdd{fill:#ffffff;stroke:#13540c;}#mermaid-0 .attributeBoxEven{fill:#f2f2f2;stroke:#13540c;}#mermaid-0 .relationshipLabelBox{fill:hsl(78.1578947368, 58.4615384615%, 84.5098039216%);opacity:0.7;background-color:hsl(78.1578947368, 58.4615384615%, 84.5098039216%);}#mermaid-0 .relationshipLabelBox rect{opacity:0.5;}#mermaid-0 .relationshipLine{stroke:#000000;}#mermaid-0 .entityTitleText{text-anchor:middle;font-size:18px;fill:#000000;}#mermaid-0 :root{--mermaid-font-family:"trebuchet ms",verdana,arial,sans-serif;}</style><g/><defs><marker orient="auto" markerHeight="18" markerWidth="18" refY="9" refX="0" id="ONLY_ONE_START"><path d="M9,0 L9,18 M15,0 L15,18" fill="none" stroke="gray"/></marker></defs><defs><marker orient="auto" markerHeight="18" markerWidth="18" refY="9" refX="18" id="ONLY_ONE_END"><path d="M3,0 L3,18 M9,0 L9,18" fill="none" stroke="gray"/></marker></defs><defs><marker orient="auto" markerHeight="18" markerWidth="30" refY="9" refX="0" id="ZERO_OR_ONE_START"><circle r="6" cy="9" cx="21" fill="white" stroke="gray"/><path d="M9,0 L9,18" fill="none" stroke="gray"/></marker></defs><defs><marker orient="auto" markerHeight="18" markerWidth="30" refY="9" refX="30" id="ZERO_OR_ONE_END"><circle r="6" cy="9" cx="9" fill="white" stroke="gray"/><path d="M21,0 L21,18" fill="none" stroke="gray"/></marker></defs><defs><marker orient="auto" markerHeight="36" markerWidth="45" refY="18" refX="18" id="ONE_OR_MORE_START"><path d="M0,18 Q 18,0 36,18 Q 18,36 0,18 M42,9 L42,27" fill="none" stroke="gray"/></marker></defs><defs><marker orient="auto" markerHeight="36" markerWidth="45" refY="18" refX="27" id="ONE_OR_MORE_END"><path d="M3,9 L3,27 M9,18 Q27,0 45,18 Q27,36 9,18" fill="none" stroke="gray"/></marker></defs><defs><marker orient="auto" markerHeight="36" markerWidth="57" refY="18" refX="18" id="ZERO_OR_MORE_START"><circle r="6" cy="18" cx="48" fill="white" stroke="gray"/><path d="M0,18 Q18,0 36,18 Q18,36 0,18" fill="none" stroke="gray"/></marker></defs><defs><marker orient="auto" markerHeight="36" markerWidth="57" refY="18" refX="39" id="ZERO_OR_MORE_END"><circle r="6" cy="18" cx="9" fill="white" stroke="gray"/><path d="M21,18 Q39,0 57,18 Q39,36 21,18" fill="none" stroke="gray"/></marker></defs><path style="stroke: gray; fill: none;" marker-start="url(#ZERO_OR_MORE_START)" marker-end="url(#ZERO_OR_ONE_END)" d="M74.517578125,149L74.517578125,167.83333333333334C74.517578125,186.66666666666666,74.517578125,224.33333333333334,88.51721007056979,255C102.51684201613959,285.6666666666667,130.51610590727915,309.3333333333333,144.51573785284896,321.1666666666667L158.51536979841873,333" class="er relationshipLine"/><path style="stroke: gray; fill: none;" marker-start="url(#ZERO_OR_MORE_START)" marker-end="url(#ZERO_OR_ONE_END)" d="M209.9788055419922,420L209.9788055419922,431.8333333333333C209.9788055419922,443.6666666666667,209.9788055419922,467.3333333333333,222.75691451149427,487.5C235.53502348099633,507.6666666666667,261.0912414200005,524.3333333333334,273.86935038950253,532.6666666666666L286.6474593590046,541" class="er relationshipLine"/><path style="stroke: gray; fill: none;" marker-start="url(#ZERO_OR_MORE_START)" marker-end="url(#ZERO_OR_ONE_END)" d="M432.3179016113281,441L432.3179016113281,449.3333333333333C432.3179016113281,457.6666666666667,432.3179016113281,474.3333333333333,419.53979264182607,491C406.76168367232395,507.6666666666667,381.20546573331984,524.3333333333334,368.42735676381784,532.6666666666666L355.6492477943157,541" class="er relationshipLine"/><path style="stroke: gray; fill: none;" marker-start="url(#ZERO_OR_MORE_START)" marker-end="url(#ZERO_OR_ONE_END)" d="M345.4400329589844,212L345.4400329589844,220.33333333333334C345.4400329589844,228.66666666666666,345.4400329589844,245.33333333333334,331.4404010134146,265.5C317.44076906784477,285.6666666666667,289.4415051767052,309.3333333333333,275.4418732311354,321.1666666666667L261.4422412855656,333" class="er relationshipLine"/><g transform="translate(20,83 )" id="entity-Supermercado-2fe9eb01-8622-4327-8e10-cbfc0f76224d"><rect height="66" width="109.03515625" y="0" x="0" class="er entityBox"/><text style="dominant-baseline: middle; text-anchor: middle; font-size: 12px;" transform="translate(54.517578125,12)" y="0" x="0" id="text-entity-Supermercado-2fe9eb01-8622-4327-8e10-cbfc0f76224d" class="er entityLabel">Supermercado</text><rect height="21" width="41.10546875" y="24" x="0" class="er attributeBoxOdd"/><text style="dominant-baseline: middle; font-size: 10.2px;" transform="translate(5,34.5)" y="0" x="0" id="text-entity-Supermercado-2fe9eb01-8622-4327-8e10-cbfc0f76224d-attr-1-type" class="er entityLabel">String</text><rect height="21" width="39.976287841796875" y="24" x="41.10546875" class="er attributeBoxOdd"/><text style="dominant-baseline: middle; font-size: 10.2px;" transform="translate(46.10546875,34.5)" y="0" x="0" id="text-entity-Supermercado-2fe9eb01-8622-4327-8e10-cbfc0f76224d-attr-1-name" class="er entityLabel">id</text><rect height="21" width="27.953399658203125" y="24" x="81.08175659179688" class="er attributeBoxOdd"/><text style="dominant-baseline: middle; font-size: 10.2px;" transform="translate(86.08175659179688,34.5)" y="0" x="0" id="text-entity-Supermercado-2fe9eb01-8622-4327-8e10-cbfc0f76224d-attr-1-key" class="er entityLabel">PK</text><rect height="21" width="41.10546875" y="45" x="0" class="er attributeBoxEven"/><text style="dominant-baseline: middle; font-size: 10.2px;" transform="translate(5,55.5)" y="0" x="0" id="text-entity-Supermercado-2fe9eb01-8622-4327-8e10-cbfc0f76224d-attr-2-type" class="er entityLabel">String</text><rect height="21" width="39.976287841796875" y="45" x="41.10546875" class="er attributeBoxEven"/><text style="dominant-baseline: middle; font-size: 10.2px;" transform="translate(46.10546875,55.5)" y="0" x="0" id="text-entity-Supermercado-2fe9eb01-8622-4327-8e10-cbfc0f76224d-attr-2-name" class="er entityLabel">name</text><rect height="21" width="27.953399658203125" y="45" x="81.08175659179688" class="er attributeBoxEven"/><text style="dominant-baseline: middle; font-size: 10.2px;" transform="translate(86.08175659179688,55.5)" y="0" x="0" id="text-entity-Supermercado-2fe9eb01-8622-4327-8e10-cbfc0f76224d-attr-2-key" class="er entityLabel"/></g><g transform="translate(144.13731384277344,333 )" id="entity-Pesquisa-bbf45384-4058-44c2-b746-f4fd049fefe0"><rect height="87" width="131.6829833984375" y="0" x="0" class="er entityBox"/><text style="dominant-baseline: middle; text-anchor: middle; font-size: 12px;" transform="translate(65.84149169921875,12)" y="0" x="0" id="text-entity-Pesquisa-bbf45384-4058-44c2-b746-f4fd049fefe0" class="er entityLabel">Pesquisa</text><rect height="21" width="54.113128662109375" y="24" x="0" class="er attributeBoxOdd"/><text style="dominant-baseline: middle; font-size: 10.2px;" transform="translate(5,34.5)" y="0" x="0" id="text-entity-Pesquisa-bbf45384-4058-44c2-b746-f4fd049fefe0-attr-1-type" class="er entityLabel">String</text><rect height="21" width="53.774871826171875" y="24" x="54.113128662109375" class="er attributeBoxOdd"/><text style="dominant-baseline: middle; font-size: 10.2px;" transform="translate(59.113128662109375,34.5)" y="0" x="0" id="text-entity-Pesquisa-bbf45384-4058-44c2-b746-f4fd049fefe0-attr-1-name" class="er entityLabel">id</text><rect height="21" width="23.79498291015625" y="24" x="107.88800048828125" class="er attributeBoxOdd"/><text style="dominant-baseline: middle; font-size: 10.2px;" transform="translate(112.88800048828125,34.5)" y="0" x="0" id="text-entity-Pesquisa-bbf45384-4058-44c2-b746-f4fd049fefe0-attr-1-key" class="er entityLabel">PK</text><rect height="21" width="54.113128662109375" y="45" x="0" class="er attributeBoxEven"/><text style="dominant-baseline: middle; font-size: 10.2px;" transform="translate(5,55.5)" y="0" x="0" id="text-entity-Pesquisa-bbf45384-4058-44c2-b746-f4fd049fefe0-attr-2-type" class="er entityLabel">String</text><rect height="21" width="53.774871826171875" y="45" x="54.113128662109375" class="er attributeBoxEven"/><text style="dominant-baseline: middle; font-size: 10.2px;" transform="translate(59.113128662109375,55.5)" y="0" x="0" id="text-entity-Pesquisa-bbf45384-4058-44c2-b746-f4fd049fefe0-attr-2-name" class="er entityLabel">mes_ano</text><rect height="21" width="23.79498291015625" y="45" x="107.88800048828125" class="er attributeBoxEven"/><text style="dominant-baseline: middle; font-size: 10.2px;" transform="translate(112.88800048828125,55.5)" y="0" x="0" id="text-entity-Pesquisa-bbf45384-4058-44c2-b746-f4fd049fefe0-attr-2-key" class="er entityLabel"/><rect height="21" width="54.113128662109375" y="66" x="0" class="er attributeBoxOdd"/><text style="dominant-baseline: middle; font-size: 10.2px;" transform="translate(5,76.5)" y="0" x="0" id="text-entity-Pesquisa-bbf45384-4058-44c2-b746-f4fd049fefe0-attr-3-type" class="er entityLabel">DateTime</text><rect height="21" width="53.774871826171875" y="66" x="54.113128662109375" class="er attributeBoxOdd"/><text style="dominant-baseline: middle; font-size: 10.2px;" transform="translate(59.113128662109375,76.5)" y="0" x="0" id="text-entity-Pesquisa-bbf45384-4058-44c2-b746-f4fd049fefe0-attr-3-name" class="er entityLabel">createdAt</text><rect height="21" width="23.79498291015625" y="66" x="107.88800048828125" class="er attributeBoxOdd"/><text style="dominant-baseline: middle; font-size: 10.2px;" transform="translate(112.88800048828125,76.5)" y="0" x="0" id="text-entity-Pesquisa-bbf45384-4058-44c2-b746-f4fd049fefe0-attr-3-key" class="er entityLabel"/></g><g transform="translate(271.14835357666016,541 )" id="entity-PesProd-0e597e58-2c3c-4360-9334-5acaedb3472f"><rect height="45" width="100" y="0" x="0" class="er entityBox"/><text style="dominant-baseline: middle; text-anchor: middle; font-size: 12px;" transform="translate(50,12)" y="0" x="0" id="text-entity-PesProd-0e597e58-2c3c-4360-9334-5acaedb3472f" class="er entityLabel">PesProd</text><rect height="21" width="43.94526163736979" y="24" x="0" class="er attributeBoxOdd"/><text style="dominant-baseline: middle; font-size: 10.2px;" transform="translate(5,34.5)" y="0" x="0" id="text-entity-PesProd-0e597e58-2c3c-4360-9334-5acaedb3472f-attr-1-type" class="er entityLabel">String</text><rect height="21" width="25.261545817057293" y="24" x="43.94526163736979" class="er attributeBoxOdd"/><text style="dominant-baseline: middle; font-size: 10.2px;" transform="translate(48.94526163736979,34.5)" y="0" x="0" id="text-entity-PesProd-0e597e58-2c3c-4360-9334-5acaedb3472f-attr-1-name" class="er entityLabel">id</text><rect height="21" width="30.793192545572918" y="24" x="69.20680745442708" class="er attributeBoxOdd"/><text style="dominant-baseline: middle; font-size: 10.2px;" transform="translate(74.20680745442708,34.5)" y="0" x="0" id="text-entity-PesProd-0e597e58-2c3c-4360-9334-5acaedb3472f-attr-1-key" class="er entityLabel">PK</text></g><g transform="translate(375.82029724121094,312 )" id="entity-Produto-aeef64d9-d0a9-482b-9338-ffaf60b6a55d"><rect height="129" width="112.99520874023438" y="0" x="0" class="er entityBox"/><text style="dominant-baseline: middle; text-anchor: middle; font-size: 12px;" transform="translate(56.49760437011719,12)" y="0" x="0" id="text-entity-Produto-aeef64d9-d0a9-482b-9338-ffaf60b6a55d" class="er entityLabel">Produto</text><rect height="21" width="36.947052001953125" y="24" x="0" class="er attributeBoxOdd"/><text style="dominant-baseline: middle; font-size: 10.2px;" transform="translate(5,34.5)" y="0" x="0" id="text-entity-Produto-aeef64d9-d0a9-482b-9338-ffaf60b6a55d-attr-1-type" class="er entityLabel">String</text><rect height="21" width="52.253173828125" y="24" x="36.947052001953125" class="er attributeBoxOdd"/><text style="dominant-baseline: middle; font-size: 10.2px;" transform="translate(41.947052001953125,34.5)" y="0" x="0" id="text-entity-Produto-aeef64d9-d0a9-482b-9338-ffaf60b6a55d-attr-1-name" class="er entityLabel">id</text><rect height="21" width="23.79498291015625" y="24" x="89.20022583007812" class="er attributeBoxOdd"/><text style="dominant-baseline: middle; font-size: 10.2px;" transform="translate(94.20022583007812,34.5)" y="0" x="0" id="text-entity-Produto-aeef64d9-d0a9-482b-9338-ffaf60b6a55d-attr-1-key" class="er entityLabel">PK</text><rect height="21" width="36.947052001953125" y="45" x="0" class="er attributeBoxEven"/><text style="dominant-baseline: middle; font-size: 10.2px;" transform="translate(5,55.5)" y="0" x="0" id="text-entity-Produto-aeef64d9-d0a9-482b-9338-ffaf60b6a55d-attr-2-type" class="er entityLabel">String</text><rect height="21" width="52.253173828125" y="45" x="36.947052001953125" class="er attributeBoxEven"/><text style="dominant-baseline: middle; font-size: 10.2px;" transform="translate(41.947052001953125,55.5)" y="0" x="0" id="text-entity-Produto-aeef64d9-d0a9-482b-9338-ffaf60b6a55d-attr-2-name" class="er entityLabel">name</text><rect height="21" width="23.79498291015625" y="45" x="89.20022583007812" class="er attributeBoxEven"/><text style="dominant-baseline: middle; font-size: 10.2px;" transform="translate(94.20022583007812,55.5)" y="0" x="0" id="text-entity-Produto-aeef64d9-d0a9-482b-9338-ffaf60b6a55d-attr-2-key" class="er entityLabel"/><rect height="21" width="36.947052001953125" y="66" x="0" class="er attributeBoxOdd"/><text style="dominant-baseline: middle; font-size: 10.2px;" transform="translate(5,76.5)" y="0" x="0" id="text-entity-Produto-aeef64d9-d0a9-482b-9338-ffaf60b6a55d-attr-3-type" class="er entityLabel">String</text><rect height="21" width="52.253173828125" y="66" x="36.947052001953125" class="er attributeBoxOdd"/><text style="dominant-baseline: middle; font-size: 10.2px;" transform="translate(41.947052001953125,76.5)" y="0" x="0" id="text-entity-Produto-aeef64d9-d0a9-482b-9338-ffaf60b6a55d-attr-3-name" class="er entityLabel">peso_qtd</text><rect height="21" width="23.79498291015625" y="66" x="89.20022583007812" class="er attributeBoxOdd"/><text style="dominant-baseline: middle; font-size: 10.2px;" transform="translate(94.20022583007812,76.5)" y="0" x="0" id="text-entity-Produto-aeef64d9-d0a9-482b-9338-ffaf60b6a55d-attr-3-key" class="er entityLabel"/><rect height="21" width="36.947052001953125" y="87" x="0" class="er attributeBoxEven"/><text style="dominant-baseline: middle; font-size: 10.2px;" transform="translate(5,97.5)" y="0" x="0" id="text-entity-Produto-aeef64d9-d0a9-482b-9338-ffaf60b6a55d-attr-4-type" class="er entityLabel">String</text><rect height="21" width="52.253173828125" y="87" x="36.947052001953125" class="er attributeBoxEven"/><text style="dominant-baseline: middle; font-size: 10.2px;" transform="translate(41.947052001953125,97.5)" y="0" x="0" id="text-entity-Produto-aeef64d9-d0a9-482b-9338-ffaf60b6a55d-attr-4-name" class="er entityLabel">tipo_qtd</text><rect height="21" width="23.79498291015625" y="87" x="89.20022583007812" class="er attributeBoxEven"/><text style="dominant-baseline: middle; font-size: 10.2px;" transform="translate(94.20022583007812,97.5)" y="0" x="0" id="text-entity-Produto-aeef64d9-d0a9-482b-9338-ffaf60b6a55d-attr-4-key" class="er entityLabel"/><rect height="21" width="36.947052001953125" y="108" x="0" class="er attributeBoxOdd"/><text style="dominant-baseline: middle; font-size: 10.2px;" transform="translate(5,118.5)" y="0" x="0" id="text-entity-Produto-aeef64d9-d0a9-482b-9338-ffaf60b6a55d-attr-5-type" class="er entityLabel">Int</text><rect height="21" width="52.253173828125" y="108" x="36.947052001953125" class="er attributeBoxOdd"/><text style="dominant-baseline: middle; font-size: 10.2px;" transform="translate(41.947052001953125,118.5)" y="0" x="0" id="text-entity-Produto-aeef64d9-d0a9-482b-9338-ffaf60b6a55d-attr-5-name" class="er entityLabel">preco</text><rect height="21" width="23.79498291015625" y="108" x="89.20022583007812" class="er attributeBoxOdd"/><text style="dominant-baseline: middle; font-size: 10.2px;" transform="translate(94.20022583007812,118.5)" y="0" x="0" id="text-entity-Produto-aeef64d9-d0a9-482b-9338-ffaf60b6a55d-attr-5-key" class="er entityLabel"/></g><g transform="translate(229.03515625,20 )" id="entity-User-5c8a4500-b115-494b-9de4-07737bcb82ba"><rect height="192" width="232.80975341796875" y="0" x="0" class="er entityBox"/><text style="dominant-baseline: middle; text-anchor: middle; font-size: 12px;" transform="translate(116.40487670898438,12)" y="0" x="0" id="text-entity-User-5c8a4500-b115-494b-9de4-07737bcb82ba" class="er entityLabel">User</text><rect height="21" width="54.113128662109375" y="24" x="0" class="er attributeBoxOdd"/><text style="dominant-baseline: middle; font-size: 10.2px;" transform="translate(5,34.5)" y="0" x="0" id="text-entity-User-5c8a4500-b115-494b-9de4-07737bcb82ba-attr-1-type" class="er entityLabel">String</text><rect height="21" width="109.44842529296875" y="24" x="54.113128662109375" class="er attributeBoxOdd"/><text style="dominant-baseline: middle; font-size: 10.2px;" transform="translate(59.113128662109375,34.5)" y="0" x="0" id="text-entity-User-5c8a4500-b115-494b-9de4-07737bcb82ba-attr-1-name" class="er entityLabel">id</text><rect height="21" width="23.79498291015625" y="24" x="163.56155395507812" class="er attributeBoxOdd"/><text style="dominant-baseline: middle; font-size: 10.2px;" transform="translate(168.56155395507812,34.5)" y="0" x="0" id="text-entity-User-5c8a4500-b115-494b-9de4-07737bcb82ba-attr-1-key" class="er entityLabel">PK</text><rect height="21" width="45.453216552734375" y="24" x="187.35653686523438" class="er attributeBoxOdd"/><text style="dominant-baseline: middle; font-size: 10.2px;" transform="translate(192.35653686523438,34.5)" y="0" x="0" id="text-entity-User-5c8a4500-b115-494b-9de4-07737bcb82ba-attr-1-comment" class="er entityLabel"/><rect height="21" width="54.113128662109375" y="45" x="0" class="er attributeBoxEven"/><text style="dominant-baseline: middle; font-size: 10.2px;" transform="translate(5,55.5)" y="0" x="0" id="text-entity-User-5c8a4500-b115-494b-9de4-07737bcb82ba-attr-2-type" class="er entityLabel">String</text><rect height="21" width="109.44842529296875" y="45" x="54.113128662109375" class="er attributeBoxEven"/><text style="dominant-baseline: middle; font-size: 10.2px;" transform="translate(59.113128662109375,55.5)" y="0" x="0" id="text-entity-User-5c8a4500-b115-494b-9de4-07737bcb82ba-attr-2-name" class="er entityLabel">name</text><rect height="21" width="23.79498291015625" y="45" x="163.56155395507812" class="er attributeBoxEven"/><text style="dominant-baseline: middle; font-size: 10.2px;" transform="translate(168.56155395507812,55.5)" y="0" x="0" id="text-entity-User-5c8a4500-b115-494b-9de4-07737bcb82ba-attr-2-key" class="er entityLabel"/><rect height="21" width="45.453216552734375" y="45" x="187.35653686523438" class="er attributeBoxEven"/><text style="dominant-baseline: middle; font-size: 10.2px;" transform="translate(192.35653686523438,55.5)" y="0" x="0" id="text-entity-User-5c8a4500-b115-494b-9de4-07737bcb82ba-attr-2-comment" class="er entityLabel"/><rect height="21" width="54.113128662109375" y="66" x="0" class="er attributeBoxOdd"/><text style="dominant-baseline: middle; font-size: 10.2px;" transform="translate(5,76.5)" y="0" x="0" id="text-entity-User-5c8a4500-b115-494b-9de4-07737bcb82ba-attr-3-type" class="er entityLabel">String</text><rect height="21" width="109.44842529296875" y="66" x="54.113128662109375" class="er attributeBoxOdd"/><text style="dominant-baseline: middle; font-size: 10.2px;" transform="translate(59.113128662109375,76.5)" y="0" x="0" id="text-entity-User-5c8a4500-b115-494b-9de4-07737bcb82ba-attr-3-name" class="er entityLabel">email</text><rect height="21" width="23.79498291015625" y="66" x="163.56155395507812" class="er attributeBoxOdd"/><text style="dominant-baseline: middle; font-size: 10.2px;" transform="translate(168.56155395507812,76.5)" y="0" x="0" id="text-entity-User-5c8a4500-b115-494b-9de4-07737bcb82ba-attr-3-key" class="er entityLabel"/><rect height="21" width="45.453216552734375" y="66" x="187.35653686523438" class="er attributeBoxOdd"/><text style="dominant-baseline: middle; font-size: 10.2px;" transform="translate(192.35653686523438,76.5)" y="0" x="0" id="text-entity-User-5c8a4500-b115-494b-9de4-07737bcb82ba-attr-3-comment" class="er entityLabel"/><rect height="21" width="54.113128662109375" y="87" x="0" class="er attributeBoxEven"/><text style="dominant-baseline: middle; font-size: 10.2px;" transform="translate(5,97.5)" y="0" x="0" id="text-entity-User-5c8a4500-b115-494b-9de4-07737bcb82ba-attr-4-type" class="er entityLabel">String</text><rect height="21" width="109.44842529296875" y="87" x="54.113128662109375" class="er attributeBoxEven"/><text style="dominant-baseline: middle; font-size: 10.2px;" transform="translate(59.113128662109375,97.5)" y="0" x="0" id="text-entity-User-5c8a4500-b115-494b-9de4-07737bcb82ba-attr-4-name" class="er entityLabel">matricula</text><rect height="21" width="23.79498291015625" y="87" x="163.56155395507812" class="er attributeBoxEven"/><text style="dominant-baseline: middle; font-size: 10.2px;" transform="translate(168.56155395507812,97.5)" y="0" x="0" id="text-entity-User-5c8a4500-b115-494b-9de4-07737bcb82ba-attr-4-key" class="er entityLabel"/><rect height="21" width="45.453216552734375" y="87" x="187.35653686523438" class="er attributeBoxEven"/><text style="dominant-baseline: middle; font-size: 10.2px;" transform="translate(192.35653686523438,97.5)" y="0" x="0" id="text-entity-User-5c8a4500-b115-494b-9de4-07737bcb82ba-attr-4-comment" class="er entityLabel">nullable</text><rect height="21" width="54.113128662109375" y="108" x="0" class="er attributeBoxOdd"/><text style="dominant-baseline: middle; font-size: 10.2px;" transform="translate(5,118.5)" y="0" x="0" id="text-entity-User-5c8a4500-b115-494b-9de4-07737bcb82ba-attr-5-type" class="er entityLabel">String</text><rect height="21" width="109.44842529296875" y="108" x="54.113128662109375" class="er attributeBoxOdd"/><text style="dominant-baseline: middle; font-size: 10.2px;" transform="translate(59.113128662109375,118.5)" y="0" x="0" id="text-entity-User-5c8a4500-b115-494b-9de4-07737bcb82ba-attr-5-name" class="er entityLabel">avatarUrl</text><rect height="21" width="23.79498291015625" y="108" x="163.56155395507812" class="er attributeBoxOdd"/><text style="dominant-baseline: middle; font-size: 10.2px;" transform="translate(168.56155395507812,118.5)" y="0" x="0" id="text-entity-User-5c8a4500-b115-494b-9de4-07737bcb82ba-attr-5-key" class="er entityLabel"/><rect height="21" width="45.453216552734375" y="108" x="187.35653686523438" class="er attributeBoxOdd"/><text style="dominant-baseline: middle; font-size: 10.2px;" transform="translate(192.35653686523438,118.5)" y="0" x="0" id="text-entity-User-5c8a4500-b115-494b-9de4-07737bcb82ba-attr-5-comment" class="er entityLabel">nullable</text><rect height="21" width="54.113128662109375" y="129" x="0" class="er attributeBoxEven"/><text style="dominant-baseline: middle; font-size: 10.2px;" transform="translate(5,139.5)" y="0" x="0" id="text-entity-User-5c8a4500-b115-494b-9de4-07737bcb82ba-attr-6-type" class="er entityLabel">Boolean</text><rect height="21" width="109.44842529296875" y="129" x="54.113128662109375" class="er attributeBoxEven"/><text style="dominant-baseline: middle; font-size: 10.2px;" transform="translate(59.113128662109375,139.5)" y="0" x="0" id="text-entity-User-5c8a4500-b115-494b-9de4-07737bcb82ba-attr-6-name" class="er entityLabel">autorizacao_pesquisa</text><rect height="21" width="23.79498291015625" y="129" x="163.56155395507812" class="er attributeBoxEven"/><text style="dominant-baseline: middle; font-size: 10.2px;" transform="translate(168.56155395507812,139.5)" y="0" x="0" id="text-entity-User-5c8a4500-b115-494b-9de4-07737bcb82ba-attr-6-key" class="er entityLabel"/><rect height="21" width="45.453216552734375" y="129" x="187.35653686523438" class="er attributeBoxEven"/><text style="dominant-baseline: middle; font-size: 10.2px;" transform="translate(192.35653686523438,139.5)" y="0" x="0" id="text-entity-User-5c8a4500-b115-494b-9de4-07737bcb82ba-attr-6-comment" class="er entityLabel"/><rect height="21" width="54.113128662109375" y="150" x="0" class="er attributeBoxOdd"/><text style="dominant-baseline: middle; font-size: 10.2px;" transform="translate(5,160.5)" y="0" x="0" id="text-entity-User-5c8a4500-b115-494b-9de4-07737bcb82ba-attr-7-type" class="er entityLabel">String</text><rect height="21" width="109.44842529296875" y="150" x="54.113128662109375" class="er attributeBoxOdd"/><text style="dominant-baseline: middle; font-size: 10.2px;" transform="translate(59.113128662109375,160.5)" y="0" x="0" id="text-entity-User-5c8a4500-b115-494b-9de4-07737bcb82ba-attr-7-name" class="er entityLabel">tipo</text><rect height="21" width="23.79498291015625" y="150" x="163.56155395507812" class="er attributeBoxOdd"/><text style="dominant-baseline: middle; font-size: 10.2px;" transform="translate(168.56155395507812,160.5)" y="0" x="0" id="text-entity-User-5c8a4500-b115-494b-9de4-07737bcb82ba-attr-7-key" class="er entityLabel"/><rect height="21" width="45.453216552734375" y="150" x="187.35653686523438" class="er attributeBoxOdd"/><text style="dominant-baseline: middle; font-size: 10.2px;" transform="translate(192.35653686523438,160.5)" y="0" x="0" id="text-entity-User-5c8a4500-b115-494b-9de4-07737bcb82ba-attr-7-comment" class="er entityLabel"/><rect height="21" width="54.113128662109375" y="171" x="0" class="er attributeBoxEven"/><text style="dominant-baseline: middle; font-size: 10.2px;" transform="translate(5,181.5)" y="0" x="0" id="text-entity-User-5c8a4500-b115-494b-9de4-07737bcb82ba-attr-8-type" class="er entityLabel">DateTime</text><rect height="21" width="109.44842529296875" y="171" x="54.113128662109375" class="er attributeBoxEven"/><text style="dominant-baseline: middle; font-size: 10.2px;" transform="translate(59.113128662109375,181.5)" y="0" x="0" id="text-entity-User-5c8a4500-b115-494b-9de4-07737bcb82ba-attr-8-name" class="er entityLabel">createdAt</text><rect height="21" width="23.79498291015625" y="171" x="163.56155395507812" class="er attributeBoxEven"/><text style="dominant-baseline: middle; font-size: 10.2px;" transform="translate(168.56155395507812,181.5)" y="0" x="0" id="text-entity-User-5c8a4500-b115-494b-9de4-07737bcb82ba-attr-8-key" class="er entityLabel"/><rect height="21" width="45.453216552734375" y="171" x="187.35653686523438" class="er attributeBoxEven"/><text style="dominant-baseline: middle; font-size: 10.2px;" transform="translate(192.35653686523438,181.5)" y="0" x="0" id="text-entity-User-5c8a4500-b115-494b-9de4-07737bcb82ba-attr-8-comment" class="er entityLabel"/></g><rect height="14" width="48.361328125" y="247.05728149414062" x="63.91173553466797" class="er relationshipLabelBox"/><text style="text-anchor: middle; dominant-baseline: middle; font-size: 12px;" y="254.05728149414062" x="88.09239959716797" id="rel1" class="er relationshipLabel">pesquisa</text><rect height="14" width="43.375" y="486.3033447265625" x="205.15524291992188" class="er relationshipLabelBox"/><text style="text-anchor: middle; dominant-baseline: middle; font-size: 12px;" y="493.3033447265625" x="226.84274291992188" id="rel2" class="er relationshipLabel">pesprod</text><rect height="14" width="43.375" y="494.5731506347656" x="388.190673828125" class="er relationshipLabelBox"/><text style="text-anchor: middle; dominant-baseline: middle; font-size: 12px;" y="501.5731506347656" x="409.878173828125" id="rel3" class="er relationshipLabel">pesprod</text><rect height="14" width="48.361328125" y="274.36328125" x="294.2762756347656" class="er relationshipLabelBox"/><text style="text-anchor: middle; dominant-baseline: middle; font-size: 12px;" y="281.36328125" x="318.4569396972656" id="rel4" class="er relationshipLabel">pesquisa</text></svg>