<?xml version="1.0" standalone="no"?>
<!DOCTYPE svg PUBLIC "-//W3C//DTD SVG 20010904//EN"
 "http://www.w3.org/TR/2001/REC-SVG-20010904/DTD/svg10.dtd">
<svg version="1.0" xmlns="http://www.w3.org/2000/svg"
 width="1208.000000pt" height="1280.000000pt" viewBox="0 0 1208.000000 1280.000000"
 preserveAspectRatio="xMidYMid meet">

<g transform="translate(0.000000,1280.000000) scale(0.100000,-0.100000)"
fill="#000000" stroke="none">
<path d="M12068 6400 c-2 -3520 0 -6400 5 -6400 4 0 7 2880 7 6400 0 3520 -2
6400 -5 6400 -3 0 -6 -2880 -7 -6400z"/>
<path d="M6490 11744 c-848 -59 -1628 -310 -2314 -746 -216 -137 -579 -409
-771 -577 -82 -72 -235 -221 -235 -229 0 -8 298 -295 312 -300 4 -2 53 39 108
91 149 142 514 432 697 555 210 141 490 300 503 286 4 -5 56 -88 115 -184 59
-96 118 -191 130 -210 12 -19 39 -62 59 -95 185 -299 524 -816 632 -962 86
-118 188 -238 287 -340 l90 -92 41 82 c23 45 52 96 66 112 40 49 142 148 189
185 101 80 272 167 347 178 l48 7 -73 80 c-152 166 -317 432 -593 955 -31 58
-96 182 -146 275 -172 327 -194 373 -174 379 74 22 346 66 542 88 177 20 726
17 925 -5 409 -45 798 -132 1149 -256 49 -17 93 -28 97 -24 16 17 159 407 152
414 -4 4 -84 33 -178 64 -382 127 -768 208 -1195 251 -146 14 -686 26 -810 18z"/>
<path d="M8040 8270 c-28 -54 -61 -91 -102 -112 -18 -9 -152 -69 -298 -133
-146 -63 -287 -126 -314 -138 l-49 -23 214 -189 c118 -103 224 -197 236 -209
l22 -21 -26 -75 c-33 -95 -37 -242 -9 -334 44 -146 73 -182 361 -452 352 -329
493 -455 533 -475 81 -40 216 -20 262 39 15 19 20 40 20 92 0 83 14 102 91
124 66 18 119 52 136 86 7 14 13 55 13 91 0 58 3 70 26 92 18 18 42 29 76 33
56 8 107 38 125 74 7 14 13 55 13 92 0 99 8 113 76 133 131 38 167 156 88 292
-13 23 -36 51 -50 62 -43 34 -144 130 -144 137 0 3 12 15 26 27 24 18 26 25
22 76 -6 82 -58 164 -183 286 -119 116 -218 178 -365 227 -88 29 -106 31 -230
31 -113 0 -144 -3 -194 -21 l-58 -22 -97 83 c-53 45 -113 98 -134 117 -61 55
-64 55 -87 10z"/>
<path d="M1178 4750 c-75 -12 -199 -54 -257 -87 -295 -170 -480 -464 -521
-828 -10 -95 -15 -3357 -4 -3367 8 -8 255 57 296 77 110 56 210 171 256 294
22 56 26 87 30 213 l4 146 232 5 c180 3 245 8 296 22 362 99 636 446 689 875
14 112 15 1646 1 1757 -24 186 -79 335 -181 488 -96 144 -227 263 -366 333
-119 61 -337 94 -475 72z m237 -664 c55 -25 123 -93 153 -153 53 -103 52 -85
52 -952 0 -651 -3 -816 -14 -857 -31 -117 -121 -230 -204 -259 -35 -11 -90
-15 -234 -15 l-189 0 3 983 c3 935 4 984 22 1032 43 113 121 199 209 232 56
20 146 16 202 -11z"/>
<path d="M4343 4742 c-93 -33 -158 -98 -194 -192 -19 -49 -19 -89 -21 -1218
-1 -1283 -2 -1259 60 -1442 114 -336 356 -586 641 -662 111 -30 279 -31 342
-2 102 47 158 139 166 269 9 143 -44 233 -177 304 -36 19 -87 36 -128 43 -116
17 -195 75 -252 185 -50 97 -50 96 -50 906 l0 757 88 0 c51 0 111 7 141 16 67
20 132 78 168 153 25 50 28 67 28 156 0 91 -3 105 -29 158 -34 67 -80 111
-145 141 -39 17 -63 20 -147 18 l-101 -3 -5 94 c-8 149 -65 250 -173 302 -70
35 -145 41 -212 17z"/>
<path d="M3050 4724 c-117 -23 -238 -75 -345 -147 -204 -138 -368 -422 -415
-717 -8 -55 -10 -310 -8 -940 4 -847 4 -867 25 -941 88 -311 248 -534 482
-670 383 -222 863 -93 1119 300 99 150 156 311 156 437 0 72 -4 90 -32 147
-53 107 -143 167 -251 167 -138 0 -245 -86 -287 -229 -36 -124 -101 -214 -188
-259 -40 -20 -66 -26 -121 -26 -87 0 -145 25 -208 93 -93 99 -117 182 -117
403 l0 158 205 0 c296 0 404 26 575 141 223 150 385 401 435 674 36 199 30
485 -14 657 -77 301 -269 552 -516 676 -115 57 -187 74 -335 77 -74 2 -146 1
-160 -1z m217 -639 c73 -22 144 -89 188 -178 43 -89 61 -214 51 -362 -11 -156
-62 -275 -149 -350 -64 -55 -114 -65 -319 -65 l-178 0 0 313 c0 259 3 323 16
368 43 145 130 245 244 280 41 12 93 10 147 -6z"/>
<path d="M5719 3162 c-175 -58 -301 -191 -367 -387 l-26 -80 -4 -450 c-2 -306
0 -475 8 -530 58 -399 415 -619 750 -463 73 35 206 159 229 216 8 18 17 31 22
30 4 -2 28 -31 51 -65 80 -115 204 -200 327 -223 78 -15 208 -12 276 5 122 32
252 128 315 233 14 23 27 42 30 42 3 0 26 -28 50 -61 191 -262 521 -305 753
-98 30 27 58 49 61 49 3 0 6 -49 6 -110 0 -71 4 -110 11 -110 30 0 218 54 258
75 58 29 126 101 154 163 23 49 25 107 36 1108 1 98 4 115 24 145 15 22 34 36
57 42 19 4 46 11 60 16 l25 7 1 -115 c0 -129 10 -173 59 -276 86 -179 237
-289 415 -303 102 -9 133 -25 161 -85 24 -53 24 -120 0 -173 -23 -50 -54 -74
-97 -74 -45 0 -78 36 -103 111 -39 119 -115 179 -225 179 -97 0 -174 -56 -211
-154 -46 -121 29 -327 171 -470 215 -217 555 -208 764 21 28 30 62 75 76 99
14 24 27 44 29 44 2 0 20 -27 39 -59 74 -121 214 -223 344 -250 272 -57 543
130 618 425 15 62 16 79 5 128 -23 101 -113 186 -198 186 -18 0 -33 1 -33 3 0
1 31 34 69 73 127 130 181 277 181 494 0 216 -54 364 -180 490 -263 264 -661
192 -834 -152 -61 -121 -76 -203 -76 -410 l0 -161 -48 45 c-112 105 -220 155
-357 166 -79 7 -80 7 -98 42 -19 39 -16 89 9 128 19 29 29 28 74 -8 89 -71
182 -80 270 -27 74 44 110 111 110 206 0 86 -32 154 -103 216 -165 145 -393
165 -572 51 -27 -18 -64 -47 -82 -64 -17 -18 -34 -32 -37 -32 -3 0 -12 15 -19
33 -38 90 -112 136 -218 137 -121 0 -258 -60 -348 -154 -39 -40 -51 -44 -51
-18 0 33 -61 112 -108 139 -35 21 -58 27 -106 27 -91 0 -164 -44 -209 -129
-22 -39 -22 -48 -27 -667 -5 -618 -5 -627 -26 -655 -29 -39 -79 -39 -108 0
-21 28 -21 37 -26 655 -4 463 -8 634 -17 654 -7 16 -31 48 -54 73 -107 116
-293 86 -364 -58 l-25 -53 -51 48 c-116 108 -214 142 -399 136 -126 -4 -129
-4 -211 -45 -92 -46 -191 -134 -236 -210 -14 -24 -28 -43 -31 -43 -4 1 -23 26
-42 57 -50 79 -142 160 -229 201 -68 33 -83 36 -180 39 -83 2 -118 -1 -162
-15z m277 -178 c54 -25 155 -129 183 -190 70 -147 68 -294 -4 -294 -41 0 -56
22 -65 97 -12 92 -40 151 -99 207 -92 86 -201 87 -296 4 -24 -21 -57 -64 -72
-96 l-28 -57 0 -465 c0 -452 1 -466 21 -510 31 -67 72 -110 129 -136 163 -76
319 35 345 245 7 49 14 70 30 83 29 23 45 23 71 -3 20 -20 21 -29 16 -103 -22
-322 -332 -502 -563 -327 -61 45 -116 126 -146 211 -23 64 -23 71 -23 540 l0
475 24 65 c42 116 111 203 194 247 80 42 201 45 283 7z m983 7 c101 -38 193
-142 235 -265 20 -58 21 -81 21 -531 0 -427 -2 -475 -18 -529 -36 -116 -121
-220 -216 -265 -50 -23 -68 -26 -166 -26 -100 0 -115 2 -167 28 -71 35 -130
93 -173 172 -59 110 -60 115 -60 625 0 461 0 466 23 529 48 134 148 237 262
272 52 16 207 10 259 -10z m546 -6 l25 -24 0 -590 c0 -387 4 -607 11 -641 14
-64 62 -136 116 -174 33 -23 57 -31 103 -34 83 -6 138 16 193 78 79 87 77 72
77 752 0 389 4 606 10 618 23 42 76 45 102 6 4 -6 8 -286 8 -621 0 -654 -1
-669 -51 -768 -30 -58 -95 -134 -138 -161 -214 -134 -465 -12 -536 261 -13 48
-15 159 -15 669 l0 613 26 20 c34 27 40 26 69 -4z m1260 -5 c33 -64 11 -96
-82 -117 -61 -14 -73 -21 -124 -72 -92 -93 -88 -68 -91 -721 -3 -495 -5 -569
-19 -600 -17 -37 -71 -90 -92 -90 -9 0 -11 155 -9 637 2 679 3 687 52 784 28
54 117 147 164 171 57 29 83 36 138 37 43 1 49 -2 63 -29z m675 5 c18 -10 55
-38 82 -62 40 -38 48 -52 48 -81 0 -71 -56 -94 -104 -43 -16 16 -51 39 -79 51
-206 89 -383 -207 -246 -413 48 -73 96 -98 206 -107 148 -13 244 -70 320 -193
55 -86 73 -146 80 -257 9 -160 -37 -290 -142 -395 -88 -89 -137 -110 -255
-110 -82 0 -103 4 -151 26 -109 51 -220 199 -236 314 -7 57 15 95 56 95 35 0
47 -14 66 -76 40 -132 143 -216 266 -215 106 0 193 63 247 180 23 48 27 70 27
151 0 82 -4 103 -26 150 -58 123 -138 178 -278 190 -104 9 -164 35 -228 99
-91 90 -137 245 -114 384 25 159 124 283 261 328 39 13 164 3 200 -16z m1025
-16 c100 -48 181 -152 219 -278 20 -69 22 -276 2 -341 -39 -127 -118 -230
-214 -277 -54 -26 -66 -28 -227 -33 l-170 -5 -3 -134 c-3 -157 10 -214 62
-283 72 -94 191 -123 294 -72 64 32 104 79 132 155 26 69 39 82 77 77 45 -5
59 -47 40 -117 -32 -116 -102 -202 -209 -258 -46 -24 -64 -28 -138 -28 -67 0
-96 5 -137 24 -102 45 -203 185 -232 319 -14 67 -15 857 -1 933 27 147 139
287 267 335 58 22 177 13 238 -17z m-4579 -300 c28 -30 29 -33 32 -150 l4
-119 33 0 c18 0 38 -7 46 -16 36 -44 152 -70 218 -49 21 6 21 4 21 -140 l0
-146 -49 7 c-145 19 -251 -73 -267 -234 -8 -72 -37 -125 -72 -130 -35 -5 -70
23 -81 65 -12 41 -16 798 -5 852 7 35 54 91 76 91 8 0 27 -14 44 -31z m4549
-836 c-13 -27 -30 -65 -39 -86 -44 -105 -161 -49 -154 73 l3 45 90 6 c50 3 97
6 106 7 15 2 14 -5 -6 -45z"/>
<path d="M6713 2842 c-54 -29 -105 -84 -130 -139 l-24 -51 3 -474 3 -473 27
-47 c56 -95 134 -138 251 -138 84 0 139 24 195 85 80 87 82 100 82 583 0 258
-4 430 -11 462 -14 64 -62 136 -117 175 -41 28 -50 30 -145 33 -82 2 -108 -1
-134 -16z m211 -185 c20 -28 21 -40 24 -435 2 -224 0 -421 -3 -439 -3 -18 -17
-46 -31 -63 -22 -26 -33 -30 -74 -30 -61 0 -97 28 -110 85 -13 57 -13 790 1
838 17 63 40 78 111 75 54 -3 64 -6 82 -31z"/>
<path d="M10278 2848 c-50 -13 -123 -79 -156 -142 -27 -51 -27 -53 -30 -288
l-3 -238 153 0 c128 0 160 4 193 19 56 26 104 76 134 141 24 50 26 66 26 180
0 110 -3 131 -24 178 -31 68 -105 136 -165 151 -52 13 -77 13 -128 -1z m104
-178 c40 -31 50 -69 47 -169 -4 -83 -6 -92 -33 -120 -26 -27 -37 -31 -83 -31
l-53 0 0 125 c0 135 9 169 52 199 29 21 40 20 70 -4z"/>
</g>
</svg>
