<?xml version="1.0" standalone="no"?>
<!DOCTYPE svg PUBLIC "-//W3C//DTD SVG 20010904//EN"
 "http://www.w3.org/TR/2001/REC-SVG-20010904/DTD/svg10.dtd">
<svg version="1.0" xmlns="http://www.w3.org/2000/svg"
 width="264.000000pt" height="204.000000pt" viewBox="0 0 264.000000 204.000000"
 preserveAspectRatio="xMidYMid meet">

<g transform="translate(0.000000,204.000000) scale(0.100000,-0.100000)"
fill="#000000" stroke="none">
<path d="M1375 1864 c-114 -27 -159 -41 -210 -67 -67 -35 -152 -91 -205 -136
l-35 -30 21 -21 21 -21 73 54 c76 58 137 94 143 87 2 -3 42 -63 89 -135 108
-167 108 -167 149 -121 17 20 40 36 50 36 25 0 25 2 -15 57 -55 78 -119 214
-107 226 7 7 62 11 149 10 105 -1 153 -5 205 -21 l68 -20 10 26 c12 32 8 36
-66 57 -58 17 -294 30 -340 19z"/>
<path d="M1651 1294 c-63 -34 -65 -37 -31 -69 24 -23 30 -37 30 -70 0 -37 6
-47 69 -109 71 -71 103 -82 109 -38 2 12 8 20 13 17 5 -4 13 5 19 19 5 14 16
26 25 26 8 0 15 8 15 18 0 10 9 25 20 35 17 14 18 21 10 37 -6 11 -15 20 -21
20 -5 0 -8 12 -7 26 2 20 -6 33 -34 57 -32 25 -46 30 -87 29 -32 0 -54 4 -61
14 -15 17 -14 17 -69 -12z"/>
<path d="M595 763 c-38 -10 -77 -46 -96 -87 -17 -37 -19 -69 -19 -313 0 -260
1 -273 19 -273 35 0 71 38 71 76 0 32 2 34 35 34 53 0 99 23 131 66 29 37 29
38 32 203 3 157 2 168 -20 210 -35 68 -94 100 -153 84z m69 -125 c20 -28 23
-262 4 -303 -12 -26 -42 -40 -75 -33 -17 3 -18 16 -18 164 0 173 5 194 51 194
12 0 30 -10 38 -22z"/>
<path d="M1096 757 c-12 -9 -20 -31 -24 -65 l-5 -52 -19 40 c-50 99 -181 107
-239 14 -22 -36 -24 -50 -27 -199 -3 -151 -2 -163 20 -204 31 -60 68 -86 123
-86 54 0 92 26 122 83 23 46 21 77 -8 92 -25 14 -45 3 -68 -36 -11 -19 -28
-37 -37 -41 -24 -9 -64 40 -64 78 0 28 2 29 46 29 61 0 111 31 134 82 l17 39
5 -103 c7 -147 42 -207 130 -225 27 -5 35 -2 55 23 12 16 23 23 23 17 0 -14
51 -43 74 -43 8 0 27 11 43 24 l28 24 28 -24 c36 -31 68 -30 104 0 28 23 30
24 41 6 17 -27 68 -35 97 -16 22 15 25 15 25 1 0 -8 8 -15 18 -15 36 0 49 31
55 128 2 52 10 99 16 105 8 8 11 4 11 -17 0 -33 49 -86 79 -86 16 0 21 -6 21
-25 0 -30 -25 -34 -33 -4 -4 16 -12 20 -34 17 -42 -5 -44 -48 -4 -88 36 -36
70 -38 108 -6 l28 24 28 -24 c16 -13 34 -24 42 -24 54 0 106 61 85 100 -6 11
-15 20 -20 20 -5 0 0 16 12 35 40 70 0 155 -73 155 -48 0 -79 -36 -79 -91 0
-37 -12 -51 -25 -30 -3 5 -19 12 -35 16 -17 4 -30 11 -30 17 0 6 10 8 22 5 31
-8 58 10 58 38 0 43 -75 65 -115 34 -6 -4 -19 -1 -29 6 -16 12 -24 12 -52 0
-20 -8 -36 -10 -39 -4 -10 15 -52 10 -59 -7 -3 -9 -6 -61 -6 -116 0 -74 -3
-99 -12 -96 -8 3 -13 37 -15 104 -2 54 -5 105 -8 112 -5 15 -52 16 -57 2 -2
-7 -15 -5 -36 5 -36 18 -66 13 -98 -16 -19 -18 -22 -18 -35 -3 -23 28 -57 35
-93 20 -45 -19 -59 -58 -55 -155 4 -72 3 -78 -12 -65 -8 8 -23 14 -32 14 -36
0 -47 39 -47 165 l0 120 33 15 c52 24 46 100 -8 100 -18 0 -25 5 -25 19 0 11
-10 27 -22 35 -27 19 -29 19 -52 3z m-136 -112 c15 -18 15 -86 0 -114 -8 -16
-21 -21 -50 -21 l-40 0 0 46 c0 45 13 82 34 96 18 12 43 9 56 -7z m422 -172
c21 -24 32 -63 19 -63 -6 0 -11 9 -11 20 0 23 -32 43 -54 34 -22 -8 -27 -37
-24 -123 2 -57 7 -76 21 -85 22 -14 51 3 55 33 2 11 7 21 12 21 10 0 5 -20
-13 -57 -13 -29 -48 -30 -73 -2 -16 17 -19 37 -19 111 0 82 2 91 24 109 29 24
44 24 63 2z m167 -9 c17 -22 21 -41 21 -104 0 -63 -4 -82 -21 -104 -31 -39
-74 -34 -98 11 -15 29 -15 173 1 173 6 0 8 3 5 7 -12 11 25 43 49 43 12 0 32
-12 43 -26z m70 -84 c-3 -104 6 -130 42 -130 28 0 34 18 40 135 l5 110 2 -110
c2 -86 -1 -115 -14 -133 -19 -27 -48 -28 -74 -2 -18 18 -20 33 -20 131 0 75 3
108 11 104 6 -4 9 -44 8 -105z m191 104 c0 -4 -11 -17 -25 -30 -24 -22 -26
-29 -23 -114 1 -49 -1 -93 -5 -96 -4 -4 -7 40 -7 99 0 96 2 108 22 127 22 20
38 26 38 14z m118 -6 c19 -19 14 -30 -7 -18 -27 14 -28 13 -47 -14 -20 -32 -8
-55 37 -70 67 -22 77 -102 18 -135 -24 -13 -29 -13 -53 2 -16 11 -26 26 -25
40 l0 22 11 -23 c13 -27 53 -39 73 -22 18 15 20 71 3 88 -7 7 -21 12 -32 12
-51 0 -75 71 -36 110 23 23 41 25 58 8z m177 -21 c35 -50 6 -117 -51 -117 -32
0 -34 -2 -34 -33 0 -56 45 -77 74 -35 21 30 33 15 12 -17 -20 -31 -56 -33 -82
-4 -16 17 -19 37 -19 111 0 81 2 92 22 108 27 21 58 16 78 -13z m-745 -42 c0
-18 7 -26 25 -31 28 -7 36 -44 9 -44 -9 0 -21 -13 -27 -30 -19 -50 -27 -34
-27 50 0 47 4 80 10 80 6 0 10 -11 10 -25z m718 -117 c-6 -18 -28 -21 -28 -4
0 9 7 16 16 16 9 0 14 -5 12 -12z"/>
<path d="M1475 454 c-12 -13 -15 -34 -13 -102 3 -85 3 -87 31 -97 43 -15 57
11 57 106 0 57 -4 82 -16 93 -20 20 -38 20 -59 0z m45 -94 c0 -64 -3 -80 -15
-80 -12 0 -15 16 -15 80 0 64 3 80 15 80 12 0 15 -16 15 -80z"/>
<path d="M2050 462 c-22 -8 -30 -23 -30 -63 0 -42 17 -54 55 -39 21 8 25 16
25 49 0 42 -20 63 -50 53z m25 -32 c8 -13 -4 -50 -16 -50 -5 0 -9 14 -9 30 0
30 13 40 25 20z"/>
</g>
</svg>
